<svg width="32" height="32" viewBox="0 0 32 32" fill="none" xmlns="http://www.w3.org/2000/svg">
<path fill-rule="evenodd" clip-rule="evenodd" d="M16.0001 17.9997C17.4146 17.9997 18.7711 17.4378 19.7713 16.4376C20.7715 15.4374 21.3334 14.0808 21.3334 12.6663C21.3334 11.2519 20.7715 9.8953 19.7713 8.8951C18.7711 7.89491 17.4146 7.33301 16.0001 7.33301C14.5856 7.33301 13.229 7.89491 12.2288 8.8951C11.2287 9.8953 10.6667 11.2519 10.6667 12.6663C10.6667 14.0808 11.2287 15.4374 12.2288 16.4376C13.229 17.4378 14.5856 17.9997 16.0001 17.9997ZM16.0001 16.6663C16.5254 16.6663 17.0455 16.5629 17.5308 16.3619C18.0161 16.1608 18.4571 15.8662 18.8285 15.4948C19.1999 15.1233 19.4946 14.6824 19.6956 14.1971C19.8966 13.7118 20.0001 13.1916 20.0001 12.6663C20.0001 12.1411 19.8966 11.6209 19.6956 11.1356C19.4946 10.6503 19.1999 10.2093 18.8285 9.83791C18.4571 9.46648 18.0161 9.17184 17.5308 8.97082C17.0455 8.7698 16.5254 8.66634 16.0001 8.66634C14.9392 8.66634 13.9218 9.08777 13.1717 9.83791C12.4215 10.5881 12.0001 11.6055 12.0001 12.6663C12.0001 13.7272 12.4215 14.7446 13.1717 15.4948C13.9218 16.2449 14.9392 16.6663 16.0001 16.6663Z" fill="white"/>
<path fill-rule="evenodd" clip-rule="evenodd" d="M29.3334 15.9998C29.3334 23.3638 23.3641 29.3332 16.0001 29.3332C8.63608 29.3332 2.66675 23.3638 2.66675 15.9998C2.66675 8.63584 8.63608 2.6665 16.0001 2.6665C23.3641 2.6665 29.3334 8.63584 29.3334 15.9998ZM22.4201 26.1398C20.5007 27.3582 18.2735 28.0035 16.0001 27.9998C13.6724 28.0034 11.3944 27.3268 9.44608 26.0532C9.28608 25.8532 9.12341 25.6465 8.95941 25.4332C8.76886 25.1832 8.666 24.8775 8.66675 24.5632C8.66675 23.8452 9.18275 23.2432 9.87275 23.1425C14.4361 22.4758 17.5781 22.5332 22.1474 23.1658C22.4783 23.2138 22.7807 23.3799 22.9987 23.6334C23.2167 23.887 23.3356 24.2108 23.3334 24.5452C23.3334 24.8652 23.2234 25.1758 23.0247 25.4185C22.8201 25.6678 22.6181 25.9085 22.4201 26.1398ZM24.6567 24.3105C24.5501 23.0625 23.6027 22.0212 22.3301 21.8452C17.6527 21.1978 14.3834 21.1358 9.68008 21.8232C8.40008 22.0098 7.45675 23.0605 7.34475 24.3118C5.19496 22.0792 3.99584 19.0992 4.00008 15.9998C4.00008 9.3725 9.37275 3.99984 16.0001 3.99984C22.6274 3.99984 28.0001 9.3725 28.0001 15.9998C28.0043 19.0986 26.8057 22.078 24.6567 24.3105Z" fill="white"/>
</svg>
